<?xml version="1.0" standalone="no"?>
<!DOCTYPE svg PUBLIC "-//W3C//DTD SVG 20010904//EN"
 "http://www.w3.org/TR/2001/REC-SVG-20010904/DTD/svg10.dtd">
<svg version="1.0" xmlns="http://www.w3.org/2000/svg"
 width="500.000000pt" height="500.000000pt" viewBox="0 0 500.000000 500.000000"
 preserveAspectRatio="xMidYMid meet">

<g transform="translate(0.000000,500.000000) scale(0.0500000,-0.0500000)"
fill="#ffffff" stroke="#000000">
<path d="M945 4210 c-39 -43 -27 -76 91 -234 128 -174 261 -355 439 -596 71
-96 167 -227 214 -291 47 -64 128 -175 180 -245 135 -185 294 -401 394 -536
48 -65 87 -120 87 -123 0 -3 -157 -5 -350 -5 -238 0 -357 -4 -374 -11 -51 -23
-55 -103 -7 -128 13 -7 151 -11 400 -11 l381 0 0 -55 0 -54 -306 -3 -306 -3
-25 -29 c-19 -23 -24 -36 -19 -60 11 -56 13 -56 348 -56 l308 0 0 -60 0 -60
-209 0 c-189 0 -211 -2 -232 -19 -17 -13 -23 -29 -23 -56 0 -27 6 -43 23 -56
21 -17 43 -19 232 -19 l209 0 0 -65 0 -65 -108 0 c-129 0 -152 -10 -152 -69 0
-63 23 -75 151 -79 l109 -4 0 -199 c0 -199 0 -200 25 -224 31 -32 74 -33 103
-2 21 22 22 32 22 225 l0 202 100 0 c109 0 142 10 159 47 15 34 14 47 -9 76
-20 25 -26 26 -133 29 l-112 3 -3 63 -3 62 214 0 c195 0 217 2 238 19 32 26
32 86 0 112 -21 17 -43 19 -238 19 l-214 0 3 58 3 57 318 5 c301 5 319 6 333
24 29 40 10 98 -37 115 -21 7 -134 11 -326 11 l-294 0 3 53 3 52 390 5 c215 3
396 9 403 13 40 26 31 105 -14 126 -17 7 -135 11 -374 11 -193 0 -350 2 -350
5 0 4 167 234 320 440 37 50 138 187 225 305 87 118 185 251 217 295 33 44
109 148 170 230 160 219 301 409 403 547 72 98 89 127 89 155 0 25 -7 41 -23
54 -22 18 -73 19 -1536 19 -1511 0 -1512 0 -1530 -20z m2865 -135 c0 -3 -39
-58 -87 -123 -49 -65 -178 -240 -288 -390 -110 -150 -269 -366 -353 -480 -84
-114 -178 -241 -208 -282 -31 -41 -99 -134 -152 -206 -53 -72 -113 -153 -132
-180 l-35 -49 -3 517 -2 517 -27 21 c-33 26 -79 21 -106 -11 -16 -20 -17 -60
-17 -526 l0 -506 -27 35 c-16 20 -64 85 -107 144 -44 60 -116 159 -161 219
-45 61 -151 205 -235 320 -85 116 -190 260 -235 320 -45 61 -124 169 -176 240
-53 72 -141 191 -195 265 -55 74 -104 141 -108 148 -6 9 262 12 1323 12 732 0
1331 -2 1331 -5z"/>
</g>
</svg>
